<svg width="186" height="48" viewBox="0 0 186 48" fill="none" xmlns="http://www.w3.org/2000/svg">
<path d="M35.5109 24.721C33.0494 24.721 30.5933 24.7264 28.1319 24.7264C27.5219 24.7264 27.5166 24.7155 27.7146 24.111C29.4642 18.8646 31.198 13.6127 32.9853 8.38239C33.9698 5.50545 35.9658 3.69726 38.9623 3.1413C42.8686 2.41263 46.4966 4.55547 47.7755 8.3392C49.4664 13.332 51.1253 18.3356 52.7947 23.3337C53.5922 25.7195 54.3947 28.1052 55.1974 30.491C55.2509 30.6529 55.3045 30.8202 55.3687 30.9769C55.4382 31.1495 55.5613 31.2682 55.754 31.2682C55.952 31.2682 56.0696 31.1387 56.1338 30.966C56.2409 30.6854 56.3318 30.3992 56.4282 30.1132C58.4776 23.9924 60.5325 17.8768 62.5605 11.7451C62.7477 11.1891 62.9779 10.9624 63.5932 10.9732C65.7337 11.0164 67.8688 10.984 70.0091 10.9894C70.694 10.9894 70.7208 11.0326 70.5015 11.6911C68.0561 19.0157 65.6266 26.351 63.1545 33.6649C62.0254 37.0059 59.1198 39.0732 55.7058 39.057C52.2918 39.0409 49.4504 36.9465 48.3213 33.5839C45.8706 26.2809 43.4305 18.9779 40.9743 11.6749C40.8619 11.3349 40.8834 10.7897 40.3858 10.7897C39.8934 10.7951 39.9148 11.3349 39.7972 11.6803C38.4059 15.7987 37.0307 19.917 35.6502 24.0409C35.5752 24.2622 35.4574 24.478 35.4896 24.7264L35.5109 24.721ZM35.5109 24.721C35.4307 24.9207 35.3343 25.115 35.2702 25.3147C33.9698 29.1902 32.6749 33.0657 31.38 36.9465C31.2302 37.3945 31.0749 37.8425 30.9198 38.2905C30.8449 38.501 30.7538 38.7062 30.4864 38.6954C30.2242 38.69 30.1386 38.4849 30.0637 38.2744C30.0262 38.1719 29.9887 38.0747 29.9566 37.972C28.8864 34.7714 27.8108 31.5652 26.7406 28.3644C25.3279 24.1434 23.9313 19.9117 22.4919 15.6962C21.2879 12.1607 18.0398 10.1636 14.5831 10.4551C11.1209 10.7465 8.79323 12.6411 7.68021 15.9444C5.21874 23.215 2.80541 30.5072 0.370692 37.794C0.151299 38.4579 0.162001 38.4795 0.852285 38.4849C2.92848 38.4902 4.99934 38.4902 7.07554 38.4849C8.24207 38.4849 8.02268 38.5659 8.3598 37.5619C10.4574 31.3222 12.5443 25.0772 14.6366 18.8376C14.7222 18.5785 14.7489 18.233 15.1021 18.2168C15.5034 18.1952 15.5355 18.5677 15.6318 18.843C16.1028 20.2302 16.5629 21.6174 17.0285 23.0045C19.0352 29.0012 21.0577 34.998 23.043 41.0002C24.4235 45.1779 28.4904 47.31 32.6427 46.1765C35.2916 45.4532 37.0307 43.672 37.9136 41.0595C39.171 37.3514 40.4018 33.6324 41.6432 29.9189C42.1356 28.4507 42.6279 26.9825 43.1201 25.509C43.3717 24.7534 43.3717 24.7534 42.553 24.7534C42.3817 24.7534 42.2105 24.7534 42.0392 24.7534C39.8559 24.748 37.6781 24.7372 35.4949 24.7317L35.5109 24.721Z" fill="#6A4EE9"/>
<path d="M104 38H82.96L82.84 35.24L96.04 16.6V16.56H89L88.2 20.6L83.64 20.2L84.44 12H103.88L103.96 14.44L90.56 33.36V33.44H99.44L100.24 28.64L104.8 29.04L104 38ZM123.879 32.32C123.746 33.92 122.959 35.3333 121.519 36.56C120.079 37.7867 118.066 38.4 115.479 38.4C112.786 38.4 110.559 37.64 108.799 36.12C107.066 34.6 106.199 32.3333 106.199 29.32C106.199 26.5467 106.986 24.24 108.559 22.4C110.159 20.5333 112.386 19.6 115.239 19.6C117.746 19.6 119.773 20.32 121.319 21.76C122.893 23.2 123.693 25.0933 123.719 27.44C123.719 28.32 123.626 29.1867 123.439 30.04H111.599C111.893 32.8933 113.306 34.32 115.839 34.32C117.226 34.32 118.159 33.9867 118.639 33.32C119.146 32.6533 119.453 32.0533 119.559 31.52L123.879 32.32ZM118.399 27.04C118.506 26.1333 118.306 25.28 117.799 24.48C117.319 23.68 116.466 23.28 115.239 23.28C114.173 23.28 113.346 23.6267 112.759 24.32C112.173 25.0133 111.799 25.92 111.639 27.04H118.399ZM147.935 38H137.975V34.12H140.375V27.84C140.375 26.2933 140.109 25.1867 139.575 24.52C139.069 23.8533 138.309 23.52 137.295 23.52C136.069 23.52 135.122 23.9067 134.455 24.68C133.789 25.4267 133.442 26.4133 133.415 27.64V34.12H135.815V38H125.855V34.12H128.255V23.88H125.655V19.96H133.415V22.72C134.615 20.64 136.549 19.6 139.215 19.6C140.922 19.6 142.402 20.1067 143.655 21.12C144.909 22.1333 145.535 23.7067 145.535 25.84V34.12H147.935V38ZM164.646 32.4C164.38 34.48 163.66 36 162.486 36.96C161.313 37.92 159.793 38.4 157.926 38.4C155.926 38.4 154.3 37.9067 153.046 36.92C151.82 35.9067 151.206 34.4667 151.206 32.6V23.64H148.646V19.96H151.206V14.48H156.366V19.96H162.846V23.64H156.366V31.72C156.366 33.2933 157.086 34.08 158.526 34.08C158.846 34.08 159.273 33.9467 159.806 33.68C160.366 33.3867 160.726 32.5733 160.886 31.24L164.646 32.4ZM184.464 29C184.464 31.8533 183.53 34.1333 181.664 35.84C179.797 37.5467 177.424 38.4 174.544 38.4C171.77 38.4 169.504 37.6 167.744 36C166.01 34.3733 165.144 32.1067 165.144 29.2C165.144 26.56 165.944 24.2933 167.544 22.4C169.144 20.5067 171.57 19.56 174.824 19.56C178.077 19.56 180.49 20.5067 182.064 22.4C183.664 24.2667 184.464 26.4667 184.464 29ZM179.144 28.84C179.144 27 178.717 25.6533 177.864 24.8C177.01 23.9467 175.97 23.52 174.744 23.52C173.41 23.52 172.357 24 171.584 24.96C170.837 25.8933 170.464 27.2133 170.464 28.92C170.464 30.4667 170.81 31.7733 171.504 32.84C172.224 33.9067 173.29 34.44 174.704 34.44C176.037 34.44 177.104 33.9467 177.904 32.96C178.73 31.9467 179.144 30.5733 179.144 28.84Z" fill="#363853"/>
</svg>
